<svg width="47" height="44" viewBox="0 0 47 44" fill="none" xmlns="http://www.w3.org/2000/svg">
<path fill-rule="evenodd" clipRule="evenodd" d="M45.1583 31.7857H13.3183C11.8517 31.7857 10.6676 30.6016 10.6676 29.1351C10.6676 27.6685 11.8517 26.4844 13.3183 26.4844C13.3183 26.4844 13.3183 26.4844 13.3291 26.4844H42.0297C42.6814 26.4844 43.2246 26.0173 43.3332 25.3764L46.4618 6.83294C46.527 6.45273 46.4184 6.06166 46.1685 5.75749C45.9187 5.46418 45.5493 5.29037 45.1583 5.29037H11.754L11.1456 1.12977C11.0479 0.47798 10.4938 0 9.83118 0H1.32531C0.597475 0 0 0.597475 0 1.32531C0 2.05314 0.597475 2.65062 1.32531 2.65062H8.67968L11.83 24.0728C9.63564 24.7246 8.01703 26.7343 8.01703 29.1351C8.01703 32.0573 10.3961 34.4363 13.3183 34.4363H17.3702C15.8928 35.2293 14.8717 36.7827 14.8717 38.5752C14.8717 41.1715 16.99 43.2898 19.5863 43.2898C22.1935 43.2898 24.3009 41.1715 24.3009 38.5752C24.3009 36.7827 23.2798 35.2402 21.8024 34.4363H34.86C33.3826 35.2293 32.3614 36.7827 32.3614 38.5752C32.3614 41.1715 34.4797 43.2898 37.076 43.2898C39.6832 43.2898 41.7907 41.1715 41.7907 38.5752C41.7907 36.7827 40.7695 35.2402 39.2921 34.4363H45.1583C45.8861 34.4363 46.4836 33.8388 46.4836 33.111C46.4836 32.3831 45.8969 31.7857 45.1583 31.7857ZM43.5939 7.94082L40.9107 23.8337H14.4806L12.145 7.94082H43.5939ZM19.5865 40.6282C18.4459 40.6282 17.5225 39.7049 17.5225 38.5642C17.5225 37.4236 18.4459 36.5002 19.5865 36.5002C20.7272 36.5002 21.6506 37.4236 21.6506 38.5642C21.6506 39.7049 20.7272 40.6282 19.5865 40.6282ZM37.0759 40.6282C35.9353 40.6282 35.0119 39.7049 35.0119 38.5642C35.0119 37.4236 35.9353 36.5002 37.0759 36.5002C38.2165 36.5002 39.1399 37.4236 39.1399 38.5642C39.1399 39.7049 38.2165 40.6282 37.0759 40.6282Z" fill="white"/>
</svg>
