<svg width="30" height="22" viewBox="0 0 30 22" fill="none" xmlns="http://www.w3.org/2000/svg">
<path fill-rule="evenodd" clipRule="evenodd" d="M27.2477 0C28.1466 0 28.9449 0.410076 29.4472 1.04436L14.8595 12.6869L0.401782 1.25578C0.885181 0.502678 1.75705 0 2.75229 0H27.2477ZM0 19.381V3.3217L10.3738 11.5238L0.0213847 19.709C0.00727382 19.6015 0 19.4921 0 19.381ZM0.948747 21.3594C1.43178 21.7585 2.06239 22 2.75229 22H27.2477C27.8407 22 28.3899 21.8216 28.8392 21.518L17.8158 12.7202L15.8335 14.3023C15.2729 14.7498 14.4561 14.7515 13.8933 14.3066L11.8811 12.7156L0.948747 21.3594ZM19.3149 11.5238L29.9248 19.9916C29.974 19.7957 30 19.5912 30 19.381V2.99593L19.3149 11.5238Z" fill="#414142"/>
</svg>
