<svg width="39" height="42" viewBox="0 0 39 42" fill="none" xmlns="http://www.w3.org/2000/svg">
<path d="M12.4271 14.6163C14.3599 21.7697 16.7475 24.7656 23.1802 28.2977L19.9234 32.1158C12.5626 27.7635 9.27949 21.2272 7.90148 16.2302L12.4271 14.6163Z" fill="#414142"/>
<path d="M15.3975 5.23477C16.7565 5.34859 17.6903 6.56957 17.4854 7.84145C17.163 9.84296 17.1907 11.3098 17.4505 13.1479C17.5933 14.1575 16.986 15.117 16.1042 15.6919C14.9156 16.4669 13.9686 17.5041 13.2095 18.4019C12.1573 19.6463 8.94499 19.2686 8.35946 17.7611C7.15611 14.6629 6.64393 9.10447 9.10566 5.59533C9.49233 5.04413 10.1951 4.79903 10.8958 4.85772L15.3975 5.23477Z" fill="#414142"/>
<path d="M34.0917 29.0204C34.3723 27.7622 33.4051 26.5645 32.0543 26.3784C29.9287 26.0856 28.4478 25.633 26.6578 24.863C25.6745 24.4401 24.5236 24.7078 23.6829 25.3351C22.5498 26.1806 21.2209 26.732 20.0883 27.1546C18.5184 27.7403 17.9655 30.7462 19.325 31.7134C22.1191 33.7013 27.612 35.7832 31.8916 34.587C32.5639 34.3991 33.0175 33.8371 33.1622 33.1883L34.0917 29.0204Z" fill="#414142"/>
</svg>
